<svg xmlns="http://www.w3.org/2000/svg" width="251" height="35" viewBox="0 0 251 35" fill="none"><path d="M59.1053 25.3983H48.5113V30.3205H59.1053V25.3983Z" fill="#162F54"></path><path d="M177.973 6.99805H167.379V11.9202H177.973V6.99805Z" fill="#162F54"></path><path d="M133.419 13.5937C133.531 13.4417 135.013 10.5277 135.658 9.21274C134.473 8.61972 133.735 8.25736 132.731 7.89899C129.489 6.74101 126.157 6.33982 122.764 7.16473C121.731 7.41591 120.713 7.85266 119.798 8.37631C117.298 9.80601 116.14 12.7681 117.121 15.6981C117.532 16.9257 118.418 17.8317 119.542 18.5497C121.188 19.6015 123.092 20.0145 124.943 20.5639C125.804 20.8196 126.683 21.031 127.52 21.342C128.056 21.5411 128.597 21.8176 129.022 22.1787C130.27 23.2367 130.046 24.7866 128.501 25.3969C127.739 25.698 126.832 25.7874 126 25.7874C121.831 25.7874 117.801 22.5916 117.541 22.39C116.862 23.702 116.067 25.2344 115.326 26.6664C115.56 26.8757 115.789 27.0375 116.032 27.202C119.429 29.5045 123.215 30.5943 127.388 30.3279C129.438 30.1969 131.37 29.6582 133.084 28.4947C136.155 26.4107 136.726 21.7687 134.106 19.1811C133.493 18.5765 132.72 18.0441 131.914 17.7063C130.473 17.1022 128.954 16.664 127.463 16.1707C126.697 15.917 125.903 15.7306 125.152 15.4439C124.613 15.2381 124.109 14.938 123.615 14.6415C122.493 13.9684 122.391 12.1638 124.02 11.5718C125.034 11.2034 126.061 11.2264 127.093 11.3922C128.889 11.6797 133.006 13.4082 133.419 13.5937Z" fill="#162F54"></path><path d="M165.373 2.26391V30.322H159.736V6.84175H149.626V2.26391H165.373Z" fill="#162F54"></path><path d="M46.5621 7.0081H41.1331V30.32H46.5621V7.0081Z" fill="#162F54"></path><path d="M214.815 11.3881V6.99805H191.294V30.3205H210.195V25.9305H196.788V20.7829H203.392V16.3931H196.788V11.3881H214.815Z" fill="#162F54"></path><path d="M97.25 0V0.558449C97.25 0.368126 97.2259 0.180306 97.2125 0H97.25Z" fill="#162F54"></path><path d="M97.25 0.558449L97.2495 8.74248C97.2495 11.6024 97.2495 14.4598 97.2415 17.3197C97.2415 18.414 97.2388 19.5059 97.2334 20.6003C96.9253 26.0446 92.1049 30.367 86.2073 30.367C80.2427 30.367 75.3821 25.9495 75.1704 20.4225C75.165 20.1019 75.1624 19.7739 75.1624 19.4458V6.97445C75.9314 6.97445 78.7449 6.98447 80.6875 6.98447C80.6875 7.48783 80.6848 7.90604 80.6875 8.32426C80.6875 12.1934 80.6714 13.2677 80.6982 16.9691V17.7379C80.6955 18.071 80.6875 18.4666 80.6982 18.8949V20.2522C80.6982 23.0946 83.1634 25.3985 86.2073 25.3985C89.2485 25.3985 91.7137 23.0946 91.7137 20.2522V19.3456C91.7673 18.5042 91.7217 17.8305 91.7217 17.5501V17.3197C91.7163 13.3003 91.7164 10.3052 91.7164 6.97445C91.719 5.22896 91.719 3.39081 91.719 1.26467V1.12051e-06L97.2125 0C97.2259 0.180306 97.25 0.368126 97.25 0.558449Z" fill="#162F54"></path><path d="M22.741 26.2749C20.3642 28.7416 16.8675 30.3018 12.9688 30.3018C5.80649 30.3018 0 25.0428 0 18.5567C0 12.0706 5.80649 6.81156 12.9688 6.81156C16.8407 6.81156 20.316 8.34919 22.6874 10.7884L18.8637 14.362C17.5481 12.5664 15.3991 11.3969 12.9688 11.3969C8.95758 11.3969 5.70735 14.5799 5.70735 18.5066C5.70735 22.4333 8.95758 25.6188 12.9688 25.6188C15.3991 25.6188 17.5508 24.4493 18.8637 22.6512L22.741 26.2749Z" fill="#162F54"></path><path d="M240.929 23.6557V23.6759H240.885L240.872 23.6531C240.891 23.6557 240.91 23.6557 240.929 23.6557Z" fill="#162F54"></path><path d="M240.929 23.6557V23.6759H240.885L240.872 23.6531C240.891 23.6557 240.91 23.6557 240.929 23.6557Z" fill="#162F54"></path><path d="M245.909 22.5988C248.615 21.1663 250.443 18.4517 250.443 15.3363C250.443 10.7309 246.447 6.99705 241.52 6.99705H229.666V19.213H223.76V23.6756H229.666V35H235.395V23.6756L240.885 23.6759L240.872 23.6531C240.891 23.6556 240.909 23.6556 240.928 23.6556V23.6756L240.885 23.6759L244.719 30.1642H251L245.909 22.5988ZM240.866 19.2125H235.395V11.3147H240.866C243.199 11.3147 245.091 13.0827 245.091 15.2635C245.091 17.4442 243.199 19.2125 240.866 19.2125Z" fill="#162F54"></path></svg>