<svg width="589" height="88" viewBox="0 0 589 88" fill="none" xmlns="http://www.w3.org/2000/svg">
<path d="M167.642 9.45416V23.9913H131.54V36.4104H164.369V50.0811H131.54V63.4629H167.546V78.0001H115.27V9.45416H167.642Z" fill="black"/>
<path d="M205.2 35.8328L207.799 28.3235H223.203L205.488 78.0001H187.582L169.868 28.3235H186.041L188.641 35.8328C189.989 40.5822 191.304 45.2354 192.588 49.7923C193.872 54.285 194.866 57.815 195.572 60.3822C196.278 62.8853 196.728 64.4898 196.92 65.1958C197.113 64.4898 197.562 62.8853 198.268 60.3822C198.974 57.815 199.969 54.285 201.252 49.7923C202.536 45.2354 203.852 40.5822 205.2 35.8328Z" fill="black"/>
<path d="M274.632 54.6059V57.5903H237.855C238.369 60.992 239.621 63.5913 241.61 65.3884C243.6 67.1855 246.135 68.084 249.216 68.084C254.093 68.084 257.431 66.2228 259.228 62.5002H273.476C272.128 67.6348 269.272 71.7103 264.908 74.7268C260.544 77.6792 255.313 79.1553 249.216 79.1553C241.514 79.1553 235.288 76.7806 230.539 72.0312C225.789 67.2817 223.415 60.992 223.415 53.1618C223.415 45.2675 225.757 38.9777 230.443 34.2924C235.064 29.543 241.257 27.1683 249.023 27.1683C256.725 27.1683 262.951 29.6393 267.7 34.5812C272.321 39.5874 274.632 46.2623 274.632 54.6059ZM248.831 38.2396C242.669 38.2396 239.043 41.5128 237.952 48.0594H259.902C259.388 44.9787 258.169 42.5718 256.244 40.8389C254.318 39.106 251.847 38.2396 248.831 38.2396Z" fill="black"/>
<path d="M310.443 27.5534C310.7 27.5534 311.791 27.6175 313.717 27.7459V41.4166H309.866C301.073 41.4166 296.676 45.9093 296.676 54.8947V78.0001H281.658V28.3235H296.291V37.5657C298.602 30.8908 303.319 27.5534 310.443 27.5534Z" fill="black"/>
<path d="M336.871 9.45416V63.4629H368.256V78.0001H320.601V9.45416H336.871Z" fill="black"/>
<path d="M422.237 54.6059V57.5903H385.461C385.974 60.992 387.226 63.5913 389.215 65.3884C391.205 67.1855 393.74 68.084 396.821 68.084C401.698 68.084 405.036 66.2228 406.833 62.5002H421.081C419.734 67.6348 416.877 71.7103 412.513 74.7268C408.149 77.6792 402.918 79.1553 396.821 79.1553C389.119 79.1553 382.893 76.7806 378.144 72.0312C373.394 67.2817 371.02 60.992 371.02 53.1618C371.02 45.2675 373.362 38.9777 378.048 34.2924C382.669 29.543 388.862 27.1683 396.628 27.1683C404.33 27.1683 410.556 29.6393 415.305 34.5812C419.926 39.5874 422.237 46.2623 422.237 54.6059ZM396.436 38.2396C390.274 38.2396 386.648 41.5128 385.557 48.0594H407.507C406.993 44.9787 405.774 42.5718 403.849 40.8389C401.923 39.106 399.452 38.2396 396.436 38.2396Z" fill="black"/>
<path d="M462.669 34.0999V28.3235H477.784V78.0001H463.151V71.5498C460.07 76.6202 455.321 79.1553 448.903 79.1553C442.035 79.1553 436.708 76.8448 432.921 72.2237C429.135 67.6027 427.241 61.2487 427.241 53.1618C427.241 45.0749 429.135 38.721 432.921 34.0999C436.708 29.4788 442.035 27.1683 448.903 27.1683C454.936 27.1683 459.525 29.4788 462.669 34.0999ZM452.657 67.1213C459.525 67.1213 462.958 62.4681 462.958 53.1618C462.958 43.8555 459.525 39.2023 452.657 39.2023C445.854 39.2023 442.452 43.9838 442.452 53.5469C442.452 62.5965 445.854 67.1213 452.657 67.1213Z" fill="black"/>
<path d="M520.601 34.2924V9.45416H535.62V78.0001H520.986V71.5498C517.649 76.6202 512.675 79.1553 506.064 79.1553C499.389 79.1553 494.126 76.8127 490.276 72.1275C486.361 67.4422 484.403 61.1203 484.403 53.1618C484.403 45.2033 486.361 38.8814 490.276 34.1962C494.126 29.5109 499.389 27.1683 506.064 27.1683C512.354 27.1683 517.2 29.543 520.601 34.2924ZM510.204 67.1213C517.328 67.1213 520.89 62.4681 520.89 53.1618C520.89 43.8555 517.328 39.2023 510.204 39.2023C506.867 39.2023 504.267 40.4539 502.406 42.9569C500.545 45.3958 499.614 48.9258 499.614 53.5469C499.614 62.5965 503.144 67.1213 510.204 67.1213Z" fill="black"/>
<path d="M565.136 79.4442C557.305 79.4442 551.465 78.0963 547.614 75.4007C543.827 72.6409 541.709 68.2445 541.26 62.2114H555.893C556.15 64.8428 556.985 66.7041 558.397 67.7952C559.873 68.8863 562.215 69.4318 565.424 69.4318C571.008 69.4318 573.8 67.8273 573.8 64.6182C573.8 63.0779 573.19 61.9226 571.971 61.1524C570.752 60.3181 568.505 59.6441 565.232 59.1307L558.782 58.0717C547.614 56.3388 542.03 51.2684 542.03 42.8607C542.03 37.8545 543.956 34.0036 547.807 31.308C551.657 28.5482 557.177 27.1683 564.365 27.1683C579.191 27.1683 586.893 32.8483 587.471 44.2085H573.511C573.447 39.5232 570.398 37.1806 564.365 37.1806C559.295 37.1806 556.76 38.753 556.76 41.8979C556.76 43.3099 557.338 44.401 558.493 45.1712C559.648 45.9414 561.477 46.519 563.98 46.9041L571.393 47.9631C577.362 48.8616 581.759 50.5625 584.583 53.0655C587.407 55.5686 588.819 59.0023 588.819 63.3667C588.819 68.5012 586.733 72.4805 582.561 75.3044C578.453 78.0642 572.645 79.4442 565.136 79.4442Z" fill="black"/>
<path d="M85.7607 32.3328C88.4999 42.5556 87.429 53.4259 82.748 62.9178C78.0671 72.4096 70.0951 79.8766 60.3174 83.9266C50.5397 87.9765 39.6232 88.3333 29.6016 84.9315C19.5799 81.5296 11.1364 74.6008 5.84473 65.4354C10.0561 61.3537 14.5467 57.6289 19.2812 54.2713C23.4092 63.5389 32.6999 69.9998 43.5 69.9998C58.1355 69.9998 70 58.1354 70 43.4998C70 40.2088 69.3982 37.0586 68.3018 34.1512C74.001 33.1682 79.8308 32.5579 85.7607 32.3328Z" fill="#0C4139"/>
<path d="M26.9297 3.32113C34.9008 0.0194042 43.6717 -0.844497 52.1338 0.838707C60.5959 2.52193 68.3689 6.67634 74.4697 12.7772C70.3798 16.8671 65.9868 20.584 61.3457 23.91C56.6365 19.6176 50.374 16.9998 43.5 16.9998C29.2881 16.9998 17.6899 28.1875 17.0303 42.2362C11.4359 43.1529 5.74227 43.6239 0 43.6239C0 34.996 2.55819 26.5613 7.35156 19.3875C12.145 12.2137 18.9586 6.62288 26.9297 3.32113Z" fill="#00977F"/>
</svg>
