<svg width="400" height="88" viewBox="0 0 400 88" fill="none" xmlns="http://www.w3.org/2000/svg">
  <!-- Icon: Modern, stylized V & C combination -->
  <g transform="translate(10, 14)">
    <!-- Main loop in Vemcon Neon Mint -->
    <path d="M30 6C16.7452 6 6 16.7452 6 30C6 43.2548 16.7452 54 30 54C43.2548 54 54 43.2548 54 30C54 28.5 53.8 27.1 53.5 25.7C52.7 22.3 50.8 19.3 48.2 17.1L53.2 12.1C56.9 15.3 59.5 19.6 60.5 24.5C61.5 29.5 60.8 34.7 58.5 39.2C56.2 43.7 52.5 47.3 47.9 49.5C43.3 51.7 38.1 52.4 33 51.5C22.6 49.7 13.9 42.1 11.2 31.9C8.5 21.7 12.3 10.7 20.8 4.7C23.6 2.7 26.8 1.4 30.1 0.7C33.4 0 36.8 0.1 40.1 0.9L38.1 7.1C35.5 6.4 32.8 6 30 6Z" fill="#01FF88" />
    <!-- Inner dynamic chevron pointing forward / V shape -->
    <path d="M22 24L30 32L46 16" stroke="#FFFFFF" stroke-width="6" stroke-linecap="round" stroke-linejoin="round" />
  </g>
  
  <!-- Text: VemCon -->
  <!-- "Vem" part in White -->
  <text x="90" y="58" font-family="Inter, system-ui, -apple-system, sans-serif" font-size="38" font-weight="800" fill="#FFFFFF" letter-spacing="0.5">Vem</text>
  <!-- "Con" part in Neon Mint -->
  <text x="178" y="58" font-family="Inter, system-ui, -apple-system, sans-serif" font-size="38" font-weight="800" fill="#01FF88" letter-spacing="0.5">Con</text>
</svg>
