<svg width="498" height="113" viewBox="0 0 498 113" fill="none" xmlns="http://www.w3.org/2000/svg">
  <defs>
    <mask id="con-mask">
      <!-- The mask base is white (allows the rect to show through) -->
      <rect x="265.351" width="232.653" height="112.652" rx="10" fill="white"/>
      <!-- The letters are black (cuts holes in the rect) -->
      <path d="M327.224 70.1121L342.388 78.3148C339.218 82.6344 335.243 86.1039 330.463 88.7232C325.684 91.3425 320.469 92.6522 314.816 92.6522C308.475 92.6522 302.685 91.0209 297.446 87.7582C292.253 84.4955 288.094 80.1299 284.97 74.6615C281.891 69.1471 280.351 63.0583 280.351 56.395C280.351 51.3402 281.247 46.63 283.04 42.2644C284.832 37.8529 287.29 33.9928 290.415 30.6841C293.586 27.3296 297.262 24.7102 301.444 22.8261C305.626 20.942 310.083 20 314.816 20C320.469 20 325.684 21.3097 330.463 23.929C335.243 26.5483 339.218 30.0638 342.388 34.4753L327.224 42.609C325.615 40.7709 323.708 39.3464 321.503 38.3354C319.343 37.3244 317.114 36.8189 314.816 36.8189C311.508 36.8189 308.521 37.738 305.855 39.5761C303.19 41.3683 301.076 43.7579 299.514 46.7448C297.951 49.6859 297.17 52.9026 297.17 56.395C297.17 59.8415 297.951 63.0583 299.514 66.0452C301.076 68.9862 303.19 71.3528 305.855 73.145C308.521 74.9372 319.481 75.3278 321.64 74.3168C323.8 73.2599 325.661 71.8583 327.224 70.1121Z" fill="black"/>
      <path d="M378.803 92.6522C372.461 92.6522 366.671 91.0209 361.432 87.7582C356.24 84.4955 352.081 80.1299 348.956 74.6615C345.877 69.1471 344.338 63.0583 344.338 56.395C344.338 51.3402 345.234 46.63 347.026 42.2644C348.818 37.8529 351.277 33.9928 354.402 30.6841C357.572 27.3296 361.249 24.7102 365.43 22.8261C369.612 20.942 374.07 20 378.803 20C385.144 20 390.911 21.6313 396.104 24.894C401.343 28.1567 405.502 32.5453 408.581 38.0597C411.705 43.5741 413.268 49.6859 413.268 56.395C413.268 61.404 412.372 66.0912 410.579 70.4568C408.787 74.8223 406.306 78.6824 403.135 82.037C400.01 85.3456 396.357 87.942 392.175 89.8261C388.039 91.7102 383.582 92.6522 378.803 92.6522ZM378.803 75.8333C382.157 75.8333 385.167 74.9372 387.833 73.145C390.498 71.3528 392.589 68.9862 394.105 66.0452C395.668 63.1042 396.449 59.8875 396.449 56.395C396.449 52.8107 395.645 49.548 394.036 46.607C392.474 43.62 390.337 41.2534 387.626 39.5072C384.961 37.715 382.02 36.8189 378.803 36.8189C375.494 36.8189 372.507 37.715 369.842 39.5072C367.177 41.2994 365.063 43.6889 363.5 46.6759C361.938 49.6629 361.157 52.9026 361.157 56.395C361.157 60.0254 361.961 63.311 363.5 66.252C365.178 69.193 367.314 71.5367 369.98 73.2829C372.691 74.9832 375.632 75.8333 378.803 75.8333Z" fill="black"/>
      <path d="M483.004 47.2963V90.86H466.185V51.7078C466.185 48.9966 465.519 46.538 464.186 44.3323C462.854 42.0806 461.062 40.3114 458.81 39.0247C456.604 37.692 454.146 37.0257 451.434 37.0257C448.723 37.0257 446.242 37.692 443.99 39.0247C441.784 40.3114 440.015 42.0806 438.682 44.3323C437.396 46.538 436.752 48.9966 436.752 51.7078V90.86H419.933L419.865 21.93H436.683L436.752 28.0648C439.096 25.5833 441.899 23.6303 445.162 22.2058C448.424 20.7353 451.94 20 455.708 20C460.717 20 465.289 21.2407 469.425 23.7222C473.561 26.1577 476.847 29.4434 479.282 33.5792C481.764 37.6691 483.004 42.2414 483.004 47.2963Z" fill="black"/>
    </mask>
  </defs>

  <!-- Letters "vem" -->
  <path d="M146.649 91.069V22.139H163.468V28.2738C165.811 25.7923 168.614 23.8393 171.877 22.4147C175.14 20.9442 178.655 20.209 182.423 20.209C187.203 20.209 191.591 21.3348 195.589 23.5866C199.633 25.8383 202.85 28.8482 205.239 32.6164C207.675 28.8482 210.891 25.8383 214.889 23.5866C218.887 21.3348 223.276 20.209 228.055 20.209C233.11 20.209 237.682 21.4497 241.772 23.9312C245.908 26.3667 249.194 29.6524 251.629 33.7882C254.111 37.878 255.351 42.4504 255.351 47.5053V91.069H238.532V51.9857C238.532 49.3204 237.866 46.8849 236.533 44.6791C235.247 42.4274 233.5 40.6352 231.295 39.3026C229.135 37.924 226.699 37.2347 223.988 37.2347C221.277 37.2347 218.818 37.901 216.613 39.2337C214.453 40.5204 212.707 42.2666 211.374 44.4723C210.041 46.6781 209.375 49.1826 209.375 51.9857V91.069H192.556V51.9857C192.556 49.1826 191.913 46.6781 190.626 44.4723C189.339 42.2666 187.593 40.5204 185.387 39.2337C183.182 37.901 180.723 37.2347 178.012 37.2347C175.347 37.2347 172.911 37.924 170.705 39.3026C168.499 40.6352 166.73 42.4274 165.398 44.6791C164.111 46.8849 163.468 49.3204 163.468 51.9857V91.069H146.649Z" fill="currentColor"/>
  <path d="M123.745 87.9775C118.253 91.1483 112.423 92.6306 106.255 92.4244C100.127 92.1952 94.331 90.474 88.8676 87.2608C83.444 84.0246 79.0664 79.5212 75.7348 73.7507C73.2303 69.4129 71.6627 64.9056 71.032 60.2288C70.3783 55.5122 70.5774 50.94 71.6293 46.5122C72.698 42.0217 74.572 37.9151 77.2515 34.1926C79.9309 30.47 83.3202 27.4255 87.4193 25.0589C92.0755 22.3706 96.9082 20.907 101.917 20.6681C106.943 20.3665 111.797 21.1457 116.479 23.0058C121.162 24.8659 125.383 27.6286 129.144 31.294C132.906 34.9594 135.826 39.3751 137.907 44.5414L94.27 69.7353C96.1138 71.6422 98.1894 73.1235 100.497 74.1791C102.781 75.1949 105.209 75.6771 107.779 75.6258C110.327 75.5346 112.846 74.7967 115.336 73.4119C117.906 71.9812 119.869 70.0516 121.227 67.6231C122.601 65.1319 123.364 62.4096 123.516 59.4564L140.379 54.337C141.007 61.0315 139.89 67.4602 137.028 73.6231C134.142 79.7462 129.715 84.531 123.745 87.9775ZM87.4853 59.0868L116.855 42.13C115.039 39.9949 112.863 38.3859 110.327 37.3028C107.809 36.1569 105.181 35.6043 102.446 35.645C99.7099 35.6857 97.1481 36.3953 94.7603 37.7739C92.3725 39.1525 90.497 41.0048 89.1337 43.3307C87.7474 45.6168 86.9008 48.1485 86.594 50.9257C86.304 53.6401 86.6011 56.3605 87.4853 59.0868Z" fill="currentColor"/>
  <path d="M46.8035 91.0688H25.0905L0 22.0698H17.9218L35.9815 71.6994L53.9722 22.0698H71.894L46.8035 91.0688Z" fill="currentColor"/>

  <!-- Green Pill (with masked con letters) -->
  <rect x="265.351" width="232.653" height="112.652" rx="10" fill="#01FF88" mask="url(#con-mask)"/>
</svg>
